<svg width="40" height="22" viewBox="0 0 40 22" fill="none" xmlns="http://www.w3.org/2000/svg">
<path d="M37.918 8.5741L34.7048 7.10689L31.8688 2.58231C31.0491 1.27083 29.6065 0.475753 28.0573 0.483949H15.9754C14.5737 0.483949 13.2459 1.13149 12.3934 2.24624L8.72949 7.04131L2.62295 8.71344C1.07377 9.13967 0 10.5577 0 12.1643V14.5003C0 16.4757 1.57377 18.1069 3.54917 18.1069H4.07376C4.70491 20.5413 7.18851 22.0003 9.62293 21.3692C11.2213 20.9511 12.4754 19.7052 12.8852 18.1069H26.6557C27.2868 20.5413 29.7704 22.0003 32.2048 21.3692C33.8032 20.9511 35.0573 19.7052 35.4671 18.1069H36.4507C38.4262 18.1069 39.9999 16.4757 39.9999 14.5003V11.8364C40.0081 10.4347 39.1884 9.15606 37.918 8.5741ZM8.47539 19.861C6.86884 19.861 5.56556 18.5577 5.56556 16.9511C5.56556 15.3446 6.86884 14.0413 8.47539 14.0413C10.0819 14.0413 11.3852 15.3446 11.3852 16.9511C11.3934 18.5495 10.0901 19.8528 8.47539 19.861ZM31.0573 19.861C29.4508 19.861 28.1475 18.5577 28.1475 16.9511C28.1475 15.3446 29.4508 14.0413 31.0573 14.0413C32.6639 14.0413 33.9671 15.3446 33.9671 16.9511C33.9753 18.5495 32.6721 19.8528 31.0573 19.861ZM36.4507 16.4675H35.5819C35.3114 13.9675 33.0573 12.1643 30.5573 12.4429C28.4344 12.6725 26.7622 14.3528 26.5327 16.4675H13C12.7295 13.9675 10.4754 12.1643 7.97539 12.4429C5.85245 12.6725 4.18032 14.3528 3.95081 16.4675H3.54098C2.46721 16.4675 1.63114 15.5741 1.63114 14.5003V12.1643C1.62295 11.2872 2.20491 10.5249 3.04917 10.2872L9.43441 8.54131C9.60654 8.49213 9.76227 8.39377 9.86883 8.24623L13.6885 3.23804C14.2377 2.53313 15.0819 2.12329 15.9754 2.12329H28.0573C29.0409 2.11509 29.9671 2.61509 30.4835 3.45116L33.4507 8.18885C33.5327 8.3282 33.6639 8.43475 33.8032 8.50033L37.2294 10.0659C37.918 10.3856 38.3606 11.0741 38.3524 11.8364V14.5003H38.3606C38.3606 15.5741 37.5245 16.4675 36.4507 16.4675Z" fill="#0A519D"/>
</svg>
