<svg id="icono" xmlns="http://www.w3.org/2000/svg" viewBox="0 0 82.5 82.5"><defs><style>.cls-1{fill:#2167ae;}</style></defs><path class="cls-1" d="M74.83,53c-2.63-2.68-7-4.07-13-4.16C60,47.12,50.31,38.74,36.25,38.74c-4.44,0-10.13,1.31-16.91,3.89-.07,0-.12.08-.18.11a1.55,1.55,0,0,0-.21,0A117.53,117.53,0,0,0,5.64,48.93,1.26,1.26,0,0,0,5,50V60c0,4.82,4.53,6.31,6.18,6.31h2.25a2.07,2.07,0,0,0,.22,0,8.29,8.29,0,0,0,15.16,0H56.18a8.29,8.29,0,0,0,15.14,0h4.92a1.25,1.25,0,0,0,1.25-1.25V60A9.38,9.38,0,0,0,74.83,53Zm-17-4.18H39.37V41.4A37.63,37.63,0,0,1,57.87,48.82Zm-21-7.56v7.56H28.75c-5.71,0-7.45-3.75-7.54-3.94l-.1-.23c6.1-2.26,11.2-3.41,15.14-3.41ZM21.25,68.73a5.81,5.81,0,1,1,5.8-5.8A5.8,5.8,0,0,1,21.25,68.73Zm0-14.11A8.31,8.31,0,0,0,13,62.93a6.55,6.55,0,0,0,.05.89H11.2S7.51,63.43,7.51,60V55.34H9.15a1.25,1.25,0,0,0,0-2.5H7.5V50.77a119.19,119.19,0,0,1,11.26-5.23l.17.36c.1.22,2.41,5.42,9.82,5.42h8.12v12.5H29.5a6.55,6.55,0,0,0,.05-.89A8.31,8.31,0,0,0,21.25,54.62Zm42.5,14.11a5.81,5.81,0,1,1,5.8-5.8A5.8,5.8,0,0,1,63.75,68.73ZM75,63.82H72a6.55,6.55,0,0,0,0-.89,8.3,8.3,0,1,0-16.6,0,6.55,6.55,0,0,0,0,.89H39.37V51.32H61.25c5.59,0,9.56,1.16,11.79,3.43a6.92,6.92,0,0,1,2,5.17Z"/></svg>