<svg width="283" height="220" viewBox="0 0 283 220" fill="none" xmlns="http://www.w3.org/2000/svg">
<path d="M169.592 81.05C169.592 75.4823 157.61 61.9859 148.007 61.9859C140.631 61.9859 140.512 65.8828 133.325 65.8828C122.245 65.8828 114.024 47.3765 92.7161 47.3765C70.014 47.3765 40.3496 68.6641 40.3496 85.362C40.3496 109.273 169.592 115.004 169.592 81.05Z" fill="#A89E96" fill-opacity="0.2"/>
<path d="M226.801 162.956C227.056 136.977 227.464 95.2447 227.464 89.0683C227.464 80.0062 213.993 52.8632 190.429 52.8632C164.614 52.8632 151.857 82.4615 134.96 82.4615C119.473 82.4615 118.252 74.627 99.0803 74.627C86.5884 74.627 60.8857 90.622 60.8857 106.974L77.9945 162.943L226.801 162.956Z" fill="#F8F8F8"/>
<path d="M138.478 120.019L137.506 120.171L137.659 121.142L138.63 120.99L138.478 120.019Z" fill="#4C433D"/>
<path d="M151.085 97.6878C151.196 95.3758 150.447 93.4611 149.411 93.4112C148.375 93.3614 147.445 95.1952 147.334 97.5072C147.222 99.8192 147.971 101.734 149.007 101.784C150.043 101.834 150.973 99.9998 151.085 97.6878Z" fill="#A89E96"/>
<path d="M144.775 118.934C144.703 118.241 146.32 103.846 147.607 99.283C148.374 99.0011 149.192 98.8866 150.007 98.9471L149.885 113.132L148.097 119.803L144.775 118.934Z" fill="#A89E96"/>
<path d="M155.687 98.8896L144.443 99.8185L144.085 97.5962L154.907 94.1769L155.687 98.8896Z" fill="#4C433D"/>
<path d="M133.288 211.675H128.364V215.837H133.288V211.675Z" fill="#D3CFCB"/>
<path d="M148.524 212.325H143.6V216.488H148.524V212.325Z" fill="#D3CFCB"/>
<path d="M127.853 142.273V211.903H133.622L140.252 174.652C140.252 174.652 141.164 154.5 127.853 142.273Z" fill="#073F7B"/>
<path d="M146.854 140.901C147.015 142.909 149.021 179.446 149.021 179.446V212.714L143.103 213.347L139.297 177.974L127.853 142.273C129.584 141.323 142.262 139.533 146.854 140.901Z" fill="#0A519D"/>
<path d="M136.306 110.285C147.676 110.285 148.216 139.165 146.864 140.902C145.512 142.638 129.34 143.821 127.852 142.27C126.364 140.72 122.141 110.285 136.306 110.285Z" fill="#172A63"/>
<path d="M152.966 97.6863C153.078 95.3743 152.328 93.4596 151.293 93.4097C150.257 93.3598 149.327 95.1936 149.215 97.5056C149.104 99.8176 149.853 101.732 150.889 101.782C151.924 101.832 152.854 99.9983 152.966 97.6863Z" fill="#D3CFCB"/>
<path d="M143.138 215.837V220H154.847V218.485L148.757 215.837H143.138Z" fill="#4C433D"/>
<path d="M128.211 215.181V219.343H139.92V217.828L133.829 215.181H128.211Z" fill="#4C433D"/>
<path d="M137.139 112.797C137.139 113.751 132.701 113.869 132.701 112.797V103.329H137.139V112.797Z" fill="#A89E96"/>
<path d="M137.003 107.691C139.577 107.691 141.663 104.509 141.663 100.584C141.663 96.6592 139.577 93.4774 137.003 93.4774C134.43 93.4774 132.343 96.6592 132.343 100.584C132.343 104.509 134.43 107.691 137.003 107.691Z" fill="#D3CFCB"/>
<path d="M128.889 97.6533C128.889 95.4631 129.844 94.0803 130.62 93.6409C132.118 92.7833 132.744 93.1656 134.253 92.4975C135.888 91.7829 137.29 89.6963 139.203 89.6963C140.991 89.6963 140.83 90.711 142.042 91.0111C142.758 91.1862 146.82 90.2537 146.82 92.8798C146.82 96.9244 142.325 97.2531 141.284 97.7712C141.128 97.3054 140.947 96.8486 140.741 96.4028C139.922 97.246 136.957 97.832 136.478 98.0213C135.369 98.4787 134.84 100.212 134.84 101.344C134.84 102.477 133.813 102.48 133.556 102.48C131.185 102.48 128.889 100.962 128.889 97.6533Z" fill="#4C433D"/>
<path d="M132.789 103.328C133.644 103.328 134.337 102.635 134.337 101.781C134.337 100.926 133.644 100.234 132.789 100.234C131.934 100.234 131.24 100.926 131.24 101.781C131.24 102.635 131.934 103.328 132.789 103.328Z" fill="#D3CFCB"/>
<path d="M140 117.916C140.905 117.916 145.469 118.105 147.325 118.774C147.468 117.87 148.276 104.921 149.653 100.584C150.179 100.005 152.317 100.073 152.317 100.584C152.317 101.095 155.361 122.336 152.317 124.855C149.274 127.374 138.953 123.997 138.527 123.665C138.101 123.333 140 117.916 140 117.916Z" fill="#D3CFCB"/>
<path d="M130.28 117.152C131.288 113.05 140.422 116.462 141.248 117.398C142.239 118.52 140.469 124.844 139.102 125.137C136.874 125.619 128.971 122.472 130.28 117.152Z" fill="#172A63"/>
<path d="M56.2153 33.5621L24.6694 162.956H87.7637L56.2153 33.5621Z" fill="#BAB5B0"/>
<path d="M31.5484 33.5621L0 174.218H63.0943L31.5484 33.5621Z" fill="#BAB5B0"/>
<path d="M282.088 162.956V116.573C282.072 111.087 279.883 105.831 276.001 101.952C272.118 98.0735 266.857 95.8872 261.366 95.8711C260.25 95.8717 259.136 95.962 258.034 96.1411V42.7644C258.034 39.0063 256.54 35.4022 253.881 32.7446C251.221 30.0871 247.614 28.5937 243.852 28.593C240.09 28.593 236.482 30.0861 233.822 32.7437C231.162 35.4014 229.668 39.0059 229.668 42.7644V54.19C227.533 53.4635 225.294 53.0926 223.039 53.0923C217.548 53.1084 212.287 55.295 208.404 59.1744C204.521 63.0538 202.333 68.3107 202.318 73.7966V111.843H193.296C189.545 111.855 185.951 113.348 183.298 115.998C180.646 118.648 179.151 122.239 179.139 125.986V158.926C179.139 160.291 179.339 161.648 179.731 162.956H282.088Z" fill="#BAB5B0"/>
<path d="M179.633 33.5618C180.318 30.7702 179.978 27.8259 178.675 25.2632C177.373 22.7004 175.194 20.689 172.534 19.5937C169.874 18.4985 166.91 18.3919 164.178 19.2934C161.446 20.1949 159.129 22.0448 157.645 24.5074C156.192 23.8515 154.598 23.5699 153.007 23.6883C151.417 23.8067 149.882 24.3213 148.542 25.1851C147.203 26.0489 146.101 27.2344 145.338 28.6332C144.575 30.032 144.175 31.5995 144.174 33.1925C144.174 33.3173 144.174 33.4472 144.174 33.5618H179.633Z" fill="#E7ECEB"/>
<path d="M167.872 177.69H181.575" stroke="#E7ECEB" stroke-width="3.69" stroke-linecap="round" stroke-linejoin="round"/>
<path d="M62.7246 14.8748C62.0403 12.0831 62.3803 9.13888 63.6828 6.57615C64.9852 4.01342 67.164 2.00198 69.8238 0.906715C72.4836 -0.188555 75.4483 -0.2951 78.18 0.606404C80.9117 1.50791 83.2295 3.35774 84.7129 5.82035C86.1659 5.16238 87.7609 4.87916 89.3518 4.99662C90.9427 5.11408 92.4787 5.62847 93.8191 6.49266C95.1595 7.35686 96.2614 8.54325 97.024 9.94315C97.7865 11.3431 98.1853 12.9117 98.1837 14.5055C98.1837 14.6278 98.1837 14.7602 98.1837 14.8748H62.7246Z" fill="#E7ECEB"/>
<path d="M93.3196 203.007C90.1202 203.007 87.5249 205.238 87.5249 207.991H99.1169C99.1169 205.238 96.5216 203.007 93.3196 203.007Z" fill="#D3CFCB"/>
<path d="M251.03 194.764C245.931 194.764 241.812 196.422 241.812 198.465H260.246C260.246 196.422 256.121 194.764 251.03 194.764Z" fill="#D3CFCB"/>
<path d="M213.175 136.689H213.173C207.002 136.689 201.999 141.687 201.999 147.852V158.04C201.999 164.206 207.002 169.204 213.173 169.204H213.175C219.347 169.204 224.349 164.206 224.349 158.04V147.852C224.349 141.687 219.347 136.689 213.175 136.689Z" fill="#E7ECEB"/>
<path d="M213.175 177.69V146.833" stroke="#BAB5B0" stroke-width="2.39" stroke-linecap="round" stroke-linejoin="round"/>
<path d="M213.175 159.955C219.278 159.955 219.278 156.28 219.278 150.72" stroke="#BAB5B0" stroke-width="2.39" stroke-linecap="round" stroke-linejoin="round"/>
<path d="M32.0093 171.936L32.0093 64.5509" stroke="#D3CFCB" stroke-width="3.84" stroke-linecap="round" stroke-linejoin="round"/>
<path d="M31.7178 88.9073L38.573 81.4625" stroke="#D3CFCB" stroke-width="3.84" stroke-linecap="round" stroke-linejoin="round"/>
<path d="M31.7178 124.563L42.0198 113.377" stroke="#D3CFCB" stroke-width="3.84" stroke-linecap="round" stroke-linejoin="round"/>
<path d="M31.7178 161.758L47.7405 144.357" stroke="#D3CFCB" stroke-width="3.84" stroke-linecap="round" stroke-linejoin="round"/>
<path d="M31.7185 88.9073L24.8633 81.4625" stroke="#D3CFCB" stroke-width="3.84" stroke-linecap="round" stroke-linejoin="round"/>
<path d="M31.7184 124.563L21.4189 113.377" stroke="#D3CFCB" stroke-width="3.84" stroke-linecap="round" stroke-linejoin="round"/>
<path d="M31.7191 161.758L15.6963 144.357" stroke="#D3CFCB" stroke-width="3.84" stroke-linecap="round" stroke-linejoin="round"/>
<path d="M243.283 135.237C266.638 135.237 266.638 124.794 266.638 109.003" stroke="#D3CFCB" stroke-width="3.69" stroke-linecap="round" stroke-linejoin="round"/>
<path d="M243.306 149.151C230.458 149.151 230.458 143.405 230.458 134.717" stroke="#D3CFCB" stroke-width="3.69" stroke-linecap="round" stroke-linejoin="round"/>
<path d="M243.283 162.956V39.2978" stroke="#D3CFCB" stroke-width="3.69" stroke-linecap="round" stroke-linejoin="round"/>
<path d="M243.282 109.003L230.479 96.2091" stroke="#D3CFCB" stroke-width="3.69" stroke-linecap="round" stroke-linejoin="round"/>
<path d="M243.283 82.6063L251.031 74.8686" stroke="#D3CFCB" stroke-width="3.69" stroke-linecap="round" stroke-linejoin="round"/>
<path d="M213.175 154.335C208.94 154.335 208.94 151.788 208.94 147.926" stroke="#BAB5B0" stroke-width="2.39" stroke-linecap="round" stroke-linejoin="round"/>
<path d="M72.8711 187.908H93.5311" stroke="#E7ECEB" stroke-width="3.69" stroke-linecap="round" stroke-linejoin="round"/>
<path d="M158.705 174.218H172.405" stroke="#E7ECEB" stroke-width="3.69" stroke-linecap="round" stroke-linejoin="round"/>
<path d="M18.1028 180.52H31.8056" stroke="#E7ECEB" stroke-width="3.69" stroke-linecap="round" stroke-linejoin="round"/>
<path d="M179.139 201.048H198.4" stroke="#E7ECEB" stroke-width="3.69" stroke-linecap="round" stroke-linejoin="round"/>
<path d="M54.1303 133.579H54.1278C44.5972 133.579 36.8711 141.298 36.8711 150.819V166.554C36.8711 176.076 44.5972 183.795 54.1278 183.795H54.1303C63.6609 183.795 71.387 176.076 71.387 166.554V150.819C71.387 141.298 63.6609 133.579 54.1303 133.579Z" fill="#E7ECEB"/>
<path d="M54.1274 196.896V149.245" stroke="#BAB5B0" stroke-width="3.69" stroke-linecap="round" stroke-linejoin="round"/>
<path d="M54.1274 169.509C63.5601 169.509 63.5601 163.834 63.5601 155.246" stroke="#BAB5B0" stroke-width="3.69" stroke-linecap="round" stroke-linejoin="round"/>
<path d="M54.127 160.829C47.5879 160.829 47.5879 156.889 47.5879 150.936" stroke="#BAB5B0" stroke-width="3.69" stroke-linecap="round" stroke-linejoin="round"/>
</svg>
