<svg xmlns="http://www.w3.org/2000/svg" xmlns:xlink="http://www.w3.org/1999/xlink" width="254.897" height="61.371" viewBox="0 0 254.897 61.371">
  <defs>
    <linearGradient id="linear-gradient" x1="0.586" y1="0.182" x2="0.151" y2="1.061" gradientUnits="objectBoundingBox">
      <stop offset="0.277" stop-color="#f3f3f3"/>
      <stop offset="0.367" stop-color="#ebebf1"/>
      <stop offset="0.502" stop-color="#d8d7ed"/>
      <stop offset="0.665" stop-color="#b8b5e6"/>
      <stop offset="0.848" stop-color="#8b87dd"/>
      <stop offset="1" stop-color="#625cd5"/>
    </linearGradient>
  </defs>
  <g id="Grupo_25" data-name="Grupo 25" transform="translate(-178.895 -474.629)">
    <g id="Grupo_23" data-name="Grupo 23" transform="translate(261.763 488.669)">
      <path id="Trazado_1678" data-name="Trazado 1678" d="M1.848,0h6.8V-2.112h.066A8.625,8.625,0,0,0,15.51.726c6.336,0,10.461-3.5,10.461-9.7,0-5.181-3.828-9.372-10.4-9.372-3.1,0-5.478,1.023-6.666,2.739H8.844V-24.09h-7Zm7-8.91c0-2.772,1.716-4.554,4.983-4.554,3.2,0,4.95,1.584,4.95,4.554s-1.749,4.554-4.95,4.554C10.56-4.356,8.844-6.138,8.844-8.91ZM45.078,0h6.8V-24.09h-7v8.481h-.066c-1.188-1.716-3.564-2.739-6.666-2.739-6.567,0-10.395,4.191-10.395,9.372,0,6.2,4.125,9.7,10.461,9.7a8.625,8.625,0,0,0,6.8-2.838h.066Zm-.2-8.91c0,2.772-1.716,4.554-4.983,4.554-3.2,0-4.95-1.584-4.95-4.554s1.749-4.554,4.95-4.554C43.164-13.464,44.88-11.682,44.88-8.91Zm8.844-4.356h3.663v8.679C57.387-.726,59.268.4,63.822.4a39.688,39.688,0,0,0,5.313-.33V-4.29c-.924.033-1.617.066-2.475.066-1.881,0-2.277-.231-2.277-1.848v-7.194H69v-4.62h-4.62v-5.676h-7v5.676H53.724Zm33.99-1.485h-.066c-1.287-1.98-3.894-2.937-6.732-2.937-4.587,0-9.438,2.508-9.438,8.943,0,6.4,4.851,8.91,9.471,8.91a7.559,7.559,0,0,0,6.7-3.2h.066V-.528c0,2.838-1.749,5.214-6.435,5.214-3.135,0-5.148-.561-5.742-2.805h-3.3C72.93,6.666,77.22,7.26,80.949,7.26c7.1,0,10.065-2.508,10.065-8.712v-15.84h-3.3Zm0,6.039c0,3.564-2.376,6.1-6.369,6.1-4.026,0-6.369-2.541-6.369-6.1s2.343-6.2,6.369-6.2C85.338-14.916,87.714-12.276,87.714-8.712ZM94.842,0h3.3V-23.76h-3.3Zm6.567-8.646c0,4.983,3.3,9.24,10.032,9.24s10.032-4.257,10.032-9.24-3.3-9.24-10.032-9.24S101.409-13.629,101.409-8.646Zm16.566,0c0,3.135-1.749,6.468-6.534,6.468s-6.534-3.333-6.534-6.468,1.749-6.468,6.534-6.468S117.975-11.781,117.975-8.646ZM124.74,0h3.3V-2.211h.066C129.393-.4,132.132.594,134.673.594c5.214,0,9.4-3.333,9.4-9.141s-4.191-9.141-9.4-9.141c-2.574,0-5.247.924-6.567,3h-.066V-23.76h-3.3Zm15.84-8.547c0,3.267-1.881,6.369-6.336,6.369-4.488,0-6.4-3.1-6.4-6.369,0-3.96,2.541-6.369,6.4-6.369C138.072-14.916,140.58-12.507,140.58-8.547Zm9.834-3.333c.1-2.673,2.508-3.432,5.346-3.432,2.673,0,4.983.462,4.983,2.838,0,1.551-1.155,1.881-3,2.079l-3.762.4c-5.544.594-7.425,2.211-7.425,5.379,0,2.244,1.287,5.214,7.029,5.214,2.805,0,6.039-1.023,7.359-2.805C161.172-.264,162.261.2,163.911.2a16.9,16.9,0,0,0,2.574-.2V-2.31a6.51,6.51,0,0,1-1.155.132c-1.023,0-1.485-.462-1.485-1.485v-9.306c0-4.026-4.422-4.917-7.953-4.917-5.181,0-8.151,1.683-8.58,6.006Zm10.329,5.049c0,2.871-3.135,4.851-6.864,4.851-2.409,0-4.026-1.122-4.026-2.739,0-1.815,1.353-2.508,3.927-2.838l3.729-.462c1.848-.231,2.739-.462,3.234-1.023ZM168.729,0h3.3V-23.76h-3.3Z" transform="translate(0 24)" fill="#544eeb"/>
    </g>
    <g id="Grupo_24" data-name="Grupo 24" transform="translate(178.895 474.629)">
      <path id="Trazado_56" data-name="Trazado 56" d="M236.71,520.557A22.4,22.4,0,0,1,209.386,532.6,30.673,30.673,0,0,1,180.9,523.68a30.686,30.686,0,1,0,52-28.674q.209.821.372,1.653A22.4,22.4,0,0,1,236.71,520.557Z" transform="translate(-179.958 -485.439)" fill="#5549ec"/>
      <path id="Trazado_57" data-name="Trazado 57" d="M209.581,474.629a30.7,30.7,0,0,0-29.745,38.242,30.673,30.673,0,0,0,28.488,8.924A22.4,22.4,0,1,1,232.2,485.85q-.164-.832-.372-1.653A30.589,30.589,0,0,0,209.581,474.629Z" transform="translate(-178.895 -474.629)" fill="url(#linear-gradient)"/>
      <path id="Trazado_58" data-name="Trazado 58" d="M268.893,522.425a22.4,22.4,0,0,0-3.443-23.9,30.666,30.666,0,0,1-23.881,35.945A22.4,22.4,0,0,0,268.893,522.425Z" transform="translate(-212.141 -487.306)" fill="#5042bf"/>
    </g>
  </g>
</svg>
